<svg xmlns="http://www.w3.org/2000/svg" viewBox="0 0 1663.63 385.68"><defs><style>.cls-1{fill:#f5f8f7;}.cls-2{fill:#36ba97;}</style></defs><g id="Layer_2" data-name="Layer 2"><g id="Layer_1-2" data-name="Layer 1"><path class="cls-1" d="M736.51,215.89c1.44,1.45,3,3,4.52,4.59,10.05,10.65,16,23.19,16.57,37.89a246.82,246.82,0,0,1-.11,25.95c-1.72,27.38-24.15,51.13-52.23,54.22a76.94,76.94,0,0,1-8.14.65q-23.76.1-47.51,0a27.19,27.19,0,0,1-6.6-.83,16.18,16.18,0,0,1-12-13.67,57,57,0,0,1-.17-6.67q0-99.09,0-198.17c0-2-.07-4,.08-5.94a16.28,16.28,0,0,1,14-15.06,37.64,37.64,0,0,1,5.91-.42q18.93,0,37.87,0c10.52,0,20.73,1.69,30,6.85,20.5,11.35,31.39,28.79,32.45,52.2.27,5.93.06,11.88,0,17.82a60,60,0,0,1-11.88,36c-.87,1.19-1.74,2.38-2.59,3.6A4.31,4.31,0,0,0,736.51,215.89Zm-47.23,19.8v.17c-4.2,0-8.42-.3-12.59.07-6.91.61-10.74,4.32-11.89,11.09a42,42,0,0,0-.51,6.63q-.06,17.79,0,35.57a38.88,38.88,0,0,0,.3,5.17c.94,6.91,4,10,10.91,11a20.79,20.79,0,0,0,3,.2c6.67,0,13.35.23,20,0a26.53,26.53,0,0,0,25.91-25.47,187.47,187.47,0,0,0,0-19.26c-.79-14.17-11.94-24.74-26.17-25.13C695.21,235.62,692.25,235.69,689.28,235.69Zm-25-69.06c0,5.43,0,10.87,0,16.3a57,57,0,0,0,.47,7.39c1.08,7.67,4.44,11,12.06,11.43a140.7,140.7,0,0,0,16.3.06,25.84,25.84,0,0,0,24.32-24.45,179.38,179.38,0,0,0,0-20.74c-.67-10.91-6.55-18.68-16.53-22.58-9.2-3.6-18.92-2.7-28.48-.9a5.83,5.83,0,0,0-.71.22,9.44,9.44,0,0,0-6.54,7.4,47.64,47.64,0,0,0-.85,8.08C664.19,154.77,664.27,160.7,664.27,166.63Z"/><path class="cls-2" d="M1168,222.42q0,48.63,0,97.24c0,3,0,5.95.23,8.89a25.73,25.73,0,0,0,23.11,23.31,49.54,49.54,0,0,1,7.33,1c7.81,2.06,13.23,9.54,12.61,17.11-.72,8.65-7.29,15.39-16,15.66-15.84.5-29.68-5-41.31-15.54-12.92-11.73-19.57-26.53-19.63-44.07-.08-22.51,0-45,0-67.54a37.18,37.18,0,0,0-1.06-10.29c-2-7.25-6.64-11.77-14.11-12.23a219.5,219.5,0,0,0-24.47,0c-5.63.29-9.52,3.82-11.79,9a28.19,28.19,0,0,0-2,11.62c0,19.29,0,38.59,0,57.89,0,2.72.08,5.45-.07,8.16-.49,8.89-6.69,15.45-15.31,16.3-8.39.84-15.92-4.76-17.84-13.45a31.11,31.11,0,0,1-.55-6.62q0-100.2,0-200.41a26.45,26.45,0,0,1,.94-8.06c2.28-7.29,9.64-12.55,16.87-12a17,17,0,0,1,15.74,14.36,46.29,46.29,0,0,1,.23,6.67q0,30.42,0,60.86a31.86,31.86,0,0,0,1.53,11c2.34,6.51,7,10.24,13.82,10.52,7.17.28,14.37.35,21.52-.07,8.55-.51,13.45-5.06,15.64-13.38a36.71,36.71,0,0,0,.86-9.57q0-29.31,0-58.63c0-2.23-.09-4.47.14-6.68a16.61,16.61,0,0,1,15.07-15c7.62-.85,15.29,4.4,17.53,12,1,3.37.94,6.84.94,10.31Q1168,171.58,1168,222.42Z"/><path class="cls-1" d="M305,239V158.8c0-2.23-.08-4.47.11-6.68.56-6.76,4.42-11.54,10.3-13,7.17-1.72,13.94.76,17.47,6.59a51.86,51.86,0,0,1,2.84,6q17.75,40.38,35.48,80.78c.89,2,1.8,4.07,2.82,6a6.48,6.48,0,0,0,3.71,3.42c2,.68,4.4-.23,4.76-2.23a37.65,37.65,0,0,0,.46-6.63q0-37.86,0-75.71c0-2-.1-4,.08-5.93a13.95,13.95,0,0,1,27.58-1.6,43.16,43.16,0,0,1,.37,8.13q0,75.72,0,151.42,0,7.42,0,14.85a14.43,14.43,0,0,1-4.8,11.23c-6.69,6-18.57,4.3-23.41-3.41a45.43,45.43,0,0,1-2.87-6q-17.76-40.38-35.49-80.77c-.8-1.81-1.58-3.63-2.47-5.39a8.31,8.31,0,0,0-3.63-3.6,3.37,3.37,0,0,0-4.44,1.45,12.21,12.21,0,0,0-1,5.78c0,4.7,0,9.4,0,14.1q0,31.55,0,63.09a49.35,49.35,0,0,1-.23,6.67,13.64,13.64,0,0,1-13.36,11.64,13.51,13.51,0,0,1-13.63-10.39,42.79,42.79,0,0,1-.62-8.85Q305,279.4,305,239Z"/><path class="cls-1" d="M.08,218.18c0-19.79-.22-39.58.06-59.37.28-20.33,8.51-37,25.09-48.9,36.25-26.06,87.09-5.34,94.66,39.93a49.08,49.08,0,0,1,.49,9.62,16.11,16.11,0,0,1-15.55,15.79c-9.25.4-16.4-5.51-17.55-14.51-.34-2.69-.47-5.43-1.07-8.06a26.51,26.51,0,0,0-52.36,4.8c-.09,2-.05,4-.05,5.94V274c0,2.23,0,4.46.08,6.68a26.52,26.52,0,0,0,52.29,4.49,77.11,77.11,0,0,0,1.09-8.07c1.1-9,8.17-14.87,17.35-14.8,7.7.06,15.79,7.22,15.89,16.4.26,23.36-14.21,46.21-37.3,55.84-35.35,14.76-75.63-7.44-82.09-45.18a79,79,0,0,1-1-13.29q0-28.94,0-57.88Z"/><path class="cls-1" d="M284.82,378.25c-16.69-1.58-31-9.1-40-25.13a76.58,76.58,0,0,1-7.51-20.83c-.76-3.37-1.57-6.74-2.63-10-2.22-6.91-7.08-10.58-14.34-10.69-8.65-.13-17.32-.24-26,0-8.11.26-12.23,3.7-14.49,11.36-.63,2.13-.94,4.36-1.63,6.46A13.74,13.74,0,0,1,162.74,339c-7.39-1.44-12-7.37-11.48-14.92a35.43,35.43,0,0,1,1.19-5.79q20.31-82.71,40.65-165.42c.36-1.44.73-2.88,1.22-4.28,2.18-6.22,7.15-9.81,13.37-9.75A13.58,13.58,0,0,1,221,148.79c1.81,6.15,3.15,12.44,4.69,18.68q19.26,78,38.54,156c1,4.07,2.07,8.14,3.41,12.11,3,8.89,9.5,13.51,18.7,14.55.73.08,1.49,0,2.22.08,8.38.9,13.65,6.82,13.24,14.88-.37,7.52-6.24,12.91-14.28,13.13Zm-77.58-95v0c2.47,0,4.94,0,7.41,0a9.52,9.52,0,0,0,2.19-.34c4.8-1.25,6.6-3.74,6.13-8.62a31.11,31.11,0,0,0-.81-4.37q-4.4-18-8.86-36a32.14,32.14,0,0,0-1.57-4.93,4.2,4.2,0,0,0-4.21-2.48,4.33,4.33,0,0,0-4.14,2.62,24.71,24.71,0,0,0-1.32,4.23c-1.6,6.48-3.16,13-4.73,19.44-1.63,6.72-3.42,13.4-4.83,20.17-1.31,6.24,1.1,9.48,7.33,10.18A65.38,65.38,0,0,0,207.24,283.27Z"/><path class="cls-2" d="M1518.86,238.68q0-40.43,0-80.85a63.06,63.06,0,0,1,.19-7.41,13.8,13.8,0,0,1,12.36-11.94,14.19,14.19,0,0,1,14.19,8.7,22.93,22.93,0,0,1,1.34,8.74c0,11.62,0,23.24,0,34.86,0,2,0,3.95.1,5.93.08,1.79.47,3.65,2.28,4.34,2.26.85,3.71-.86,4.94-2.4a33.72,33.72,0,0,0,2.79-4.37q12.78-22.59,25.54-45.2a49.75,49.75,0,0,1,2.62-4.47,14,14,0,0,1,24.3,13.54,62.81,62.81,0,0,1-3.17,5.87q-17.31,30.67-34.62,61.36c-1.45,2.58-2.73,5.26-4,8a13.47,13.47,0,0,0,.4,12.16,52.37,52.37,0,0,0,3.42,5.72q28.58,42,57.19,84c1.39,2,2.86,4,4.42,6a23.43,23.43,0,0,0,16.52,8.86c1.23.12,2.48.11,3.69.32a11.59,11.59,0,0,1,5.87,3c4.11,3.79,5.54,10.78,3.26,16.5a12.22,12.22,0,0,1-12.13,8.16c-8.26,0-16.18-1.81-23.3-6.32a58.07,58.07,0,0,1-10.18-8.59,140.44,140.44,0,0,1-15.47-18.93q-21.27-30.82-42.52-61.67a46.64,46.64,0,0,0-4.61-5.77c-1.19-1.23-2.83-2.21-4.68-1.52s-2.45,2.34-2.55,4.16-.11,3.46-.12,5.19q0,18.18,0,36.35a26.21,26.21,0,0,1-.86,8.07,13.85,13.85,0,0,1-14.74,9.89A13.5,13.5,0,0,1,1519,326.19c-.19-2.21-.1-4.44-.1-6.67Q1518.86,279.1,1518.86,238.68Z"/><path class="cls-2" d="M1297.8,311.48c-4.2,0-8.41-.15-12.61,0-8,.36-12,3.55-14.47,11.36-.59,1.88-.91,3.85-1.48,5.74-2.31,7.63-9.3,11.84-16.57,10.05-7.79-1.92-12.38-8.92-10.54-16.91,3.17-13.73,6.66-27.38,10-41.06l30.9-125.25c.6-2.4,1.08-4.85,1.88-7.17a14.17,14.17,0,0,1,12.81-9.7,14.35,14.35,0,0,1,13.41,8.84,37.9,37.9,0,0,1,1.65,5.69q20,81,39.93,162c1.54,6.23,3.17,12.45,4.94,18.63,2.92,10.24,9.87,15.61,20.43,16.4a29,29,0,0,1,3,.23,13.89,13.89,0,0,1,3.09,26.47,16.43,16.43,0,0,1-8.71,1.29c-19.07-2.17-33.59-11-41.87-28.83a95.88,95.88,0,0,1-6.11-19,77.54,77.54,0,0,0-2.61-9.26c-2.18-6-6.72-9.08-13-9.41-4.69-.25-9.4,0-14.1,0Zm.33-28v-.21c2,0,4,.13,5.94,0,8.23-.61,10.88-4.19,8.94-12.28-3.06-12.74-6.24-25.45-9.4-38.17a20.55,20.55,0,0,0-1.17-3.5,4.22,4.22,0,0,0-4.14-2.6,4.14,4.14,0,0,0-4.21,2.47,38,38,0,0,0-1.8,5.63q-4.36,17.64-8.62,35.3a27.34,27.34,0,0,0-.77,4.38c-.33,4.82,1.6,7.57,6.36,8.43A74.64,74.64,0,0,0,1298.13,283.47Z"/><path class="cls-1" d="M788.42,222.33V157.78c0-2-.09-4,.06-5.93.58-7.54,6.2-12.95,13.51-13.13A13.81,13.81,0,0,1,816.3,151a51,51,0,0,1,.17,6.66V283.09c0,2.22-.06,4.45,0,6.67.53,11.54,9.19,20.68,20.69,21.37a22.14,22.14,0,0,0,23-17.12,46.86,46.86,0,0,0,.71-9.58q0-63.06,0-126.13a73.19,73.19,0,0,1,.14-7.41,13.83,13.83,0,0,1,27.14-1.78,29.24,29.24,0,0,1,.65,6.61q0,66,0,132.06c0,15.1-5.12,28.26-16.57,38.27-16,14-34.49,17.17-53.88,8.68-19.12-8.38-29.37-23.94-29.86-44.89-.52-22.49-.11-45-.11-67.51Z"/><path class="cls-1" d="M967.76,138.67c23.93.23,46.59,18.48,49,46.51a18.22,18.22,0,0,1-.74,8,13.92,13.92,0,0,1-26.84-1.58c-.36-1.67-.24-3.44-.44-5.16-1.56-12.9-13.47-21.91-25.83-19.56a22.27,22.27,0,0,0-17.75,27.74A30.89,30.89,0,0,0,951.7,207a69.67,69.67,0,0,0,12,11.06c5.55,4.14,11.21,8.13,16.8,12.21a137.68,137.68,0,0,1,19.69,16.87,60.16,60.16,0,0,1,16.42,35c3.1,26.79-13.84,49-36.31,55.11-30.25,8.26-58.43-11.92-62.91-39.54a48,48,0,0,1-.88-8.09c.06-8.24,5.94-14.38,13.72-14.6,7.42-.21,13.4,5.34,14.19,13.28a34.22,34.22,0,0,0,.94,6.58c3.47,11.72,14.91,18.48,26.52,15.59a22.26,22.26,0,0,0,16.53-26.69,30.5,30.5,0,0,0-6.72-13.06,71.21,71.21,0,0,0-12-11.06c-5.55-4.14-11.22-8.12-16.8-12.21a136.58,136.58,0,0,1-19.7-16.87,60.3,60.3,0,0,1-16.48-35.69C913.48,163.74,937.63,137.9,967.76,138.67Z"/><path class="cls-2" d="M1418.84,239q0,22.63,0,45.27a65.38,65.38,0,0,0,.26,7.41c1.27,11,9.86,18.78,21.05,19.11a21.76,21.76,0,0,0,22.49-18.47c.43-2.92.28-5.92,1.49-8.73,2.42-5.59,6.85-8.38,12.72-8.71,5.44-.31,10.69,3.33,13,8.39a14.49,14.49,0,0,1,1.09,5.78,45.41,45.41,0,0,1-7.06,25.38c-9.56,15.39-23.55,24.12-41.64,24.56A49.48,49.48,0,0,1,1391.4,297a81.11,81.11,0,0,1-.9-12.56q-.11-45.63,0-91.28c0-6.2.29-12.39,2.18-18.34q9.52-30,40.51-35.71c23.89-4.45,51.73,11.8,57.14,41a41.65,41.65,0,0,1,.55,8.86,13.74,13.74,0,0,1-12.28,13.59c-6.57.87-13.19-3.75-15-10.61a33.67,33.67,0,0,1-.69-5.13c-1.26-11.21-9-19.06-20.21-20.34-10.55-1.21-21.4,6.91-23.24,17.6a53.57,53.57,0,0,0-.52,8.87C1418.81,208.28,1418.84,223.62,1418.84,239Z"/><path class="cls-2" d="M521,180.57q-31.91,0-63.82,0c-8.57,0-8.65-.1-8.67-8.71q0-20.78,0-41.55c0-1.48,0-3,.12-4.45.23-2.51,1.24-3.64,3.65-3.84s4.94-.19,7.41-.18l112.8.34c4.7,0,9.39-.08,14.09-.15,6.09-.09,6.62.41,6.79,6.74,0,1.73,0,3.47,0,5.2v36.35c0,1.48,0,3,0,4.45-.22,5-.83,5.6-5.56,5.78-1.73.07-3.46,0-5.19,0Z"/><path class="cls-2" d="M521.26,264.34h60.07c1.73,0,3.46,0,5.19,0,6.28.14,6.68.41,6.72,6.83.11,15.08.07,30.15.08,45.22a22.5,22.5,0,0,1-.17,3c-.28,2.18-1.13,3.11-3.27,3.32-2,.18-3.94.19-5.92.19H457.9c-9.39,0-9.42,0-9.43-9.42,0-14.09-.05-28.17,0-42.26,0-6.29.52-6.8,6.76-6.82,22-.06,44,0,66,0Z"/><path class="cls-2" d="M579.51,102.2a58.62,58.62,0,0,0-5.93,0c-5.43.56-10.16-1.07-14.77-3.84a189.13,189.13,0,0,1-62.4-60.3,74.19,74.19,0,0,1-10-22.23,19.15,19.15,0,0,1-.41-8.8A8.09,8.09,0,0,1,492.3.5a17.11,17.11,0,0,1,8.08,0,65.3,65.3,0,0,1,19.31,7.4,190.06,190.06,0,0,1,56.22,49.94A150.64,150.64,0,0,1,587,74.48a60.6,60.6,0,0,1,6.9,17.92,24.84,24.84,0,0,1,.5,5.15c0,3.25-1.21,4.44-4.49,4.55-3.46.11-6.92,0-10.39,0Zm-3.1-25c0-1-.73-2.84-1.65-4.61a110.35,110.35,0,0,0-10-15.56,133.65,133.65,0,0,0-38.41-34.43A67.2,67.2,0,0,0,517,18.22c-1.48-.61-2.89.11-3.79,1.54a2.75,2.75,0,0,0,.93,3.87c2.06,1.35,4.24,2.51,6.4,3.71,14.2,8,26.6,17.91,35.74,31.61,4.12,6.17,8.57,12.11,12.89,18.14A23.81,23.81,0,0,0,571.39,80a2.65,2.65,0,0,0,3.36.64C575.67,80.13,576.16,79.31,576.41,77.25Z"/><path class="cls-2" d="M520.35,200.05q-31.86,0-63.71,0c-7.86,0-8.34-.07-8.13-8.3.1-4.14.76-4.8,4.65-5,1.48-.08,3,0,4.45,0H584.28c1.73,0,3.46,0,5.18.09,2.5.19,3.43,1.11,3.68,3.73a30.79,30.79,0,0,1,.09,5.17C593,199,592,199.85,588.5,200c-2.47.1-4.94.05-7.41.05Z"/><path class="cls-2" d="M520.91,219.44H460.78c-1.48,0-3,.09-4.45,0-2.39-.18-5.47,1-6.91-1.4-1.82-3.06-1.2-6.7-.37-10.09a2.4,2.4,0,0,1,2.31-1.58c1.72-.13,3.46-.16,5.19-.16H585c7.95,0,9,1.23,8.28,9-.32,3.27-1.17,4.06-4.78,4.21-2,.08-4,0-5.94,0Z"/><path class="cls-2" d="M520.78,238.82H456.26a49.43,49.43,0,0,1-5.17-.21,2.76,2.76,0,0,1-2.4-2.46,13.55,13.55,0,0,1-.2-2.21c-.19-8.32-.11-8.43,7.89-8.43q64.14,0,128.29,0h1.49c6.19.05,7.3-.52,7.14,7.82a16.09,16.09,0,0,1-.37,2.93,2.65,2.65,0,0,1-2.45,2.37c-2.22.15-4.45.22-6.67.22q-31.51,0-63,0Z"/><path class="cls-2" d="M521.15,258.21q-32.23,0-64.48,0c-8.63,0-8.22-.12-8.09-8.94.05-3.57.83-4.24,4.44-4.42,1.73-.09,3.46,0,5.19,0H583.46c1.48,0,3,0,4.45,0,4.13.19,5,1.09,5.33,5.37a26.55,26.55,0,0,1,0,3c-.18,4.2-.94,5-5.43,5q-33.35.06-66.7,0Z"/><path class="cls-2" d="M520.33,108.12q34.47,0,68.93,0a43.07,43.07,0,0,1,6.62.45c1.76.27,2.73,2,2.53,4a3.05,3.05,0,0,1-2.82,2.94,46.49,46.49,0,0,1-5.9.35q-68.94,0-137.87,0a44.61,44.61,0,0,1-5.17-.21c-2.32-.26-3.86-1.93-3.73-3.8s1.69-3.39,4-3.59c2-.16,3.95-.11,5.93-.11Z"/><path class="cls-2" d="M520.71,336.84H454c-2,0-4,.05-5.93-.06-3.43-.19-5.32-1.68-5.2-4,.1-2.06,1.76-3.3,4.83-3.54,1.23-.09,2.47-.07,3.7-.07q69.32,0,138.61,0a40.13,40.13,0,0,1,5.9.37,3,3,0,0,1,2.52,3.17c.06,1.62-.66,3.12-2.2,3.47a30.86,30.86,0,0,1-6.59.6q-31.12.06-62.26,0Z"/></g></g></svg>